<svg width="14" height="18" viewBox="0 0 14 18" fill="none" xmlns="http://www.w3.org/2000/svg">
<path d="M6.87497 17.3637C4.89239 16.8231 3.25092 15.6561 1.95055 13.8628C0.650184 12.0694 0 10.0645 0 7.84804V2.5737L6.87497 0L13.7499 2.5737V7.84804C13.7499 10.0645 13.0997 12.0694 11.7994 13.8628C10.499 15.6561 8.85754 16.8231 6.87497 17.3637ZM6.87497 15.9147C8.35691 15.4564 9.59441 14.5512 10.5875 13.1991C11.5805 11.847 12.1611 10.3383 12.3291 8.67304H6.87497V1.46311L1.37497 3.51679V7.84804C1.37497 8.00434 1.37497 8.13891 1.37497 8.25173C1.37497 8.36455 1.39024 8.50498 1.4208 8.67304H6.87497V15.9147Z" fill="#64748B"/>
</svg>
