<svg width="20" height="14" viewBox="0 0 20 14" fill="none" xmlns="http://www.w3.org/2000/svg">
<path d="M4.5833 13.7499C3.31643 13.7499 2.23583 13.3105 1.3415 12.4316C0.447165 11.5527 0 10.4785 0 9.20894C0 8.07016 0.366373 7.06859 1.09912 6.20422C1.83187 5.33986 2.7406 4.82777 3.82532 4.66794C4.11911 3.29765 4.80808 2.17708 5.89221 1.30625C6.97634 0.435417 8.22059 0 9.62497 0C11.2848 0 12.6928 0.578097 13.849 1.73429C15.0052 2.89048 15.5833 4.29849 15.5833 5.9583V6.41667H15.8653C16.8314 6.49188 17.637 6.88028 18.2822 7.58188C18.9273 8.28347 19.2499 9.11728 19.2499 10.0833C19.2499 11.1057 18.8974 11.9724 18.1923 12.6834C17.4871 13.3944 16.6234 13.7499 15.6009 13.7499H10.5945C10.1315 13.7499 9.73956 13.5895 9.41873 13.2687C9.0979 12.9479 8.93748 12.5559 8.93748 12.0929V7.07236L7.24163 8.74001L6.27563 7.78282L9.62497 4.43348L12.9743 7.78282L12.0083 8.74001L10.3124 7.07236V12.0929C10.3124 12.1634 10.3418 12.2281 10.4006 12.2868C10.4594 12.3456 10.524 12.375 10.5945 12.375H15.5833C16.225 12.375 16.7673 12.1534 17.2104 11.7104C17.6534 11.2673 17.875 10.725 17.875 10.0833C17.875 9.44163 17.6534 8.89927 17.2104 8.45622C16.7673 8.01316 16.225 7.79163 15.5833 7.79163H14.2083V5.9583C14.2083 4.69024 13.7614 3.60934 12.8677 2.71559C11.9739 1.82184 10.893 1.37497 9.62497 1.37497C8.35691 1.37497 7.27601 1.82184 6.38226 2.71559C5.48851 3.60934 5.04163 4.69024 5.04163 5.9583H4.56567C3.69719 5.9583 2.94828 6.27149 2.31896 6.89788C1.68963 7.52427 1.37497 8.28052 1.37497 9.16663C1.37497 10.0527 1.68816 10.809 2.31455 11.4354C2.94094 12.0618 3.69719 12.375 4.5833 12.375H6.87497V13.7499H4.5833Z" fill="#64748B"/>
</svg>
