<svg width="18" height="18" viewBox="0 0 18 18" fill="none" xmlns="http://www.w3.org/2000/svg">
<path d="M0 16.9935V1.65704C0 1.19401 0.160415 0.802076 0.481246 0.481246C0.802076 0.160415 1.19401 0 1.65704 0H15.7596C16.2226 0 16.6145 0.160415 16.9354 0.481246C17.2562 0.802076 17.4166 1.19401 17.4166 1.65704V6.69867H16.0416V1.65704C16.0416 1.58652 16.0123 1.52188 15.9535 1.46311C15.8947 1.40435 15.8301 1.37497 15.7596 1.37497H1.65704C1.58652 1.37497 1.52188 1.40435 1.46311 1.46311C1.40435 1.52188 1.37497 1.58652 1.37497 1.65704V13.6442L2.65832 12.375H11.423V13.7499H3.24356L0 16.9935ZM1.37497 12.375V13.0096V1.37497V12.375ZM15.0897 17.7691V13.7499H13.609V8.88459H17.1786L15.8847 12.1987H17.6986L15.0897 17.7691Z" fill="#64748B"/>
</svg>
