<svg width="16" height="18" viewBox="0 0 16 18" fill="none" xmlns="http://www.w3.org/2000/svg">
<path d="M1.65704 17.4166C1.19988 17.4166 0.809422 17.2547 0.485653 16.9309C0.161884 16.6072 0 16.2167 0 15.7596V3.49037C0 3.03322 0.161884 2.64276 0.485653 2.31899C0.809422 1.99522 1.19988 1.83333 1.65704 1.83333H5.73622C5.7938 1.32447 6.0159 0.891697 6.40254 0.535018C6.78918 0.178339 7.25221 0 7.79163 0C8.33693 0 8.8029 0.178339 9.18954 0.535018C9.57618 0.891697 9.79535 1.32447 9.84704 1.83333H13.9262C14.3834 1.83333 14.7738 1.99522 15.0976 2.31899C15.4214 2.64276 15.5833 3.03322 15.5833 3.49037V15.7596C15.5833 16.2167 15.4214 16.6072 15.0976 16.9309C14.7738 17.2547 14.3834 17.4166 13.9262 17.4166H1.65704ZM1.65704 16.0416H13.9262C13.9967 16.0416 14.0614 16.0123 14.1202 15.9535C14.1789 15.8947 14.2083 15.8301 14.2083 15.7596V3.49037C14.2083 3.41985 14.1789 3.35521 14.1202 3.29645C14.0614 3.23768 13.9967 3.2083 13.9262 3.2083H1.65704C1.58652 3.2083 1.52188 3.23768 1.46311 3.29645C1.40435 3.35521 1.37497 3.41985 1.37497 3.49037V15.7596C1.37497 15.8301 1.40435 15.8947 1.46311 15.9535C1.52188 16.0123 1.58652 16.0416 1.65704 16.0416ZM3.43748 13.8733H9.39578V12.4984H3.43748V13.8733ZM3.43748 10.3124H12.1458V8.93748H3.43748V10.3124ZM3.43748 6.75156H12.1458V5.37659H3.43748V6.75156ZM7.79163 2.60895C7.99024 2.60895 8.15448 2.54402 8.28434 2.41416C8.4142 2.28429 8.47913 2.12006 8.47913 1.92145C8.47913 1.72284 8.4142 1.5586 8.28434 1.42874C8.15448 1.29888 7.99024 1.23395 7.79163 1.23395C7.59302 1.23395 7.42879 1.29888 7.29892 1.42874C7.16906 1.5586 7.10413 1.72284 7.10413 1.92145C7.10413 2.12006 7.16906 2.28429 7.29892 2.41416C7.42879 2.54402 7.59302 2.60895 7.79163 2.60895ZM1.37497 16.0416C1.37497 16.0416 1.37497 16.0123 1.37497 15.9535C1.37497 15.8947 1.37497 15.8301 1.37497 15.7596V3.49037C1.37497 3.41985 1.37497 3.35521 1.37497 3.29645C1.37497 3.23768 1.37497 3.2083 1.37497 3.2083C1.37497 3.2083 1.37497 3.23768 1.37497 3.29645C1.37497 3.35521 1.37497 3.41985 1.37497 3.49037V15.7596C1.37497 15.8301 1.37497 15.8947 1.37497 15.9535C1.37497 16.0123 1.37497 16.0416 1.37497 16.0416Z" fill="#64748B"/>
</svg>
